<?xml version="1.0" standalone="no"?>
<!DOCTYPE svg PUBLIC "-//W3C//DTD SVG 20010904//EN"
 "http://www.w3.org/TR/2001/REC-SVG-20010904/DTD/svg10.dtd">
<svg version="1.0" xmlns="http://www.w3.org/2000/svg"
 width="260.000000pt" height="260.000000pt" viewBox="0 0 260.000000 260.000000"
 preserveAspectRatio="xMidYMid meet">
<metadata>
Created by potrace 1.14, written by Peter Selinger 2001-2017
</metadata>
<g transform="translate(0.000000,260.000000) scale(0.100000,-0.100000)"
fill="#000000" stroke="none">
<path d="M1778 2543 c-14 -16 -74 -73 -133 -128 -59 -55 -124 -116 -144 -135
-21 -19 -93 -87 -160 -150 -68 -63 -152 -142 -187 -175 -35 -33 -82 -78 -106
-100 -126 -117 -319 -298 -377 -354 -36 -35 -105 -99 -152 -143 -85 -78 -105
-110 -87 -142 5 -9 5 -16 1 -16 -10 0 -10 -41 1 -58 4 -7 2 -12 -5 -12 -8 0
-7 -5 2 -17 10 -11 10 -14 2 -9 -7 4 -13 3 -13 -1 0 -5 6 -15 13 -22 10 -11 9
-12 -3 -6 -13 8 -13 7 -1 -8 10 -13 10 -17 1 -17 -9 0 -9 -4 1 -17 8 -9 9 -14
4 -11 -7 4 -11 -8 -10 -33 0 -21 4 -39 9 -39 5 0 4 -6 -3 -13 -8 -10 -7 -17 2
-27 6 -7 8 -10 2 -7 -11 6 -11 -105 0 -123 3 -5 1 -10 -6 -10 -8 0 -7 -5 2
-17 8 -9 9 -14 3 -10 -11 6 -11 -74 1 -93 3 -5 1 -10 -5 -10 -7 0 -8 -6 -2
-17 6 -9 6 -29 2 -45 -6 -18 -5 -28 2 -28 7 0 7 -4 -1 -13 -8 -10 -7 -17 2
-27 6 -7 7 -10 1 -7 -11 6 -11 -74 1 -93 3 -5 2 -10 -2 -10 -10 0 -9 -53 2
-69 3 -6 3 -11 -2 -11 -4 0 -6 -27 -5 -60 2 -33 7 -60 11 -60 4 0 16 10 27 22
11 13 62 61 114 108 51 47 118 109 148 138 30 29 57 51 60 47 3 -3 7 -112 7
-243 1 -130 3 -243 3 -249 1 -7 17 2 36 20 19 17 91 86 162 152 70 66 154 145
185 175 32 30 75 70 96 89 36 32 245 228 513 481 30 29 104 98 164 153 60 56
138 130 172 163 l64 61 0 532 c0 458 -2 532 -14 529 -13 -3 -109 -89 -300
-270 -27 -26 -51 -46 -54 -44 -2 3 -5 115 -6 250 0 134 -4 247 -7 250 -3 3
-17 -6 -31 -21z m13 -315 c-4 -31 -4 -31 -147 -163 -59 -55 -119 -112 -133
-126 -39 -39 -143 -129 -150 -129 -3 0 -6 11 -6 25 0 14 2 25 5 25 8 0 5 44
-4 58 -4 7 -4 12 1 12 4 0 8 11 8 25 0 14 -4 25 -8 25 -5 0 -5 5 -1 12 4 7 7
32 7 57 -1 42 10 79 27 91 7 5 75 68 315 295 l80 75 5 -128 c3 -70 3 -139 1
-154z m374 61 c1 -13 -4 -27 -10 -31 -7 -5 -7 -8 1 -8 12 0 11 -90 -1 -110 -5
-7 -4 -11 1 -7 11 6 10 -56 -1 -74 -5 -7 -4 -10 3 -6 6 5 8 0 5 -12 -3 -11
-52 -64 -110 -118 -58 -54 -133 -124 -166 -155 -33 -32 -63 -58 -66 -58 -3 0
-6 68 -5 152 l1 152 70 65 c199 189 258 241 267 238 6 -2 11 -15 11 -28z
m-374 -198 l1 -62 -60 -57 c-33 -31 -113 -106 -178 -167 -65 -60 -130 -122
-146 -137 -31 -30 -54 -37 -44 -13 3 8 1 15 -5 15 -6 0 -6 6 0 18 7 13 6 23
-1 30 -9 9 -9 12 0 12 6 0 9 6 6 13 -6 15 10 32 176 187 68 63 150 141 184
172 33 31 62 56 63 54 2 -2 4 -31 4 -65z m-455 -160 c-1 -174 14 -144 -161
-306 -59 -55 -139 -130 -178 -167 -39 -38 -75 -68 -81 -68 -6 0 -11 11 -11 25
0 14 3 25 6 25 3 0 3 17 0 38 -4 20 -4 59 -1 85 5 38 4 47 -7 45 -8 -2 -13 -7
-13 -12 1 -5 -4 -13 -12 -17 -7 -5 -8 -9 -2 -9 11 0 14 -144 2 -155 -3 -3 -3
-18 2 -33 8 -30 20 -16 -195 -217 -59 -55 -132 -124 -162 -153 -30 -29 -58
-51 -61 -47 -3 3 -6 71 -7 150 l0 145 109 102 c60 57 152 145 205 195 90 87
121 108 121 82 0 -5 -4 -7 -10 -4 -5 3 -7 0 -4 -9 10 -26 34 -6 34 29 0 29 14
46 121 146 66 63 160 151 207 196 48 46 90 83 93 83 3 0 5 -67 5 -149z m433
-97 c-12 -13 -26 -24 -29 -24 -4 0 -8 26 -9 59 -1 51 3 62 26 89 l28 30 3 -66
c3 -55 0 -68 -19 -88z m395 96 c1 -22 -2 -40 -7 -40 -4 0 -5 -6 0 -12 11 -19
12 -38 2 -38 -6 0 -6 -7 0 -19 10 -18 6 -64 -6 -84 -3 -6 -2 -7 3 -4 5 3 10
-7 9 -21 0 -20 -19 -45 -71 -97 -117 -115 -335 -319 -349 -327 -10 -6 -12 7
-12 60 1 65 3 68 42 104 l40 36 2 89 2 88 89 85 c187 178 245 230 250 225 3
-3 6 -23 6 -45z m-458 -93 c-3 -72 17 -47 -201 -252 -124 -116 -152 -139 -142
-113 3 9 0 21 -6 27 -6 6 -7 11 -1 11 6 0 8 16 6 36 -4 32 1 40 50 87 147 141
283 267 289 267 4 0 6 -29 5 -63z m86 -91 c1 -44 -4 -64 -21 -87 -12 -16 -26
-27 -31 -24 -4 3 -8 32 -7 64 2 48 7 65 26 85 14 14 26 24 29 22 2 -2 4 -30 4
-60z m-456 -86 l-2 -61 -85 -80 c-71 -69 -145 -137 -303 -284 -22 -20 -31 -24
-37 -14 -5 8 -3 17 4 21 8 5 5 8 -8 9 -11 0 -14 3 -7 6 6 2 12 22 12 42 0 36
8 46 115 147 64 60 157 148 208 196 50 48 94 85 98 83 3 -3 6 -32 5 -65z m370
6 c-1 -74 1 -71 -127 -188 -46 -43 -113 -104 -148 -137 -35 -33 -68 -58 -73
-55 -5 3 -4 12 3 20 9 11 8 14 -2 14 -10 0 -10 3 -1 12 8 8 9 15 1 25 -8 8 -8
13 -1 13 5 0 8 8 5 18 -5 20 13 40 182 197 65 61 125 118 134 128 8 9 18 17
22 17 3 0 6 -29 5 -64z m86 -98 c-3 -47 -9 -69 -25 -85 -11 -13 -24 -23 -27
-23 -4 0 -7 27 -8 60 0 48 4 65 21 85 34 39 42 31 39 -37z m374 9 c0 -23 -3
-52 -8 -65 -4 -13 -5 -21 0 -19 4 3 7 -15 7 -39 0 -24 -4 -44 -9 -44 -5 0 -4
-6 1 -12 6 -7 8 -26 6 -43 -4 -32 -14 -42 -253 -265 -68 -63 -135 -127 -150
-142 l-27 -26 0 156 0 156 37 36 c20 19 90 85 155 145 64 61 142 134 172 163
31 29 58 50 62 47 3 -4 6 -25 7 -48z m-831 -90 c0 -55 -3 -65 -27 -89 -16 -15
-28 -26 -29 -25 -1 1 -2 30 -4 65 -2 55 0 65 24 91 14 16 28 27 31 24 2 -2 5
-32 5 -66z m371 0 l-1 -64 -70 -66 c-39 -36 -97 -91 -130 -122 -33 -31 -76
-72 -97 -91 -21 -21 -39 -31 -43 -24 -3 5 -3 15 1 22 5 7 3 8 -6 3 -9 -6 -11
-4 -5 6 12 19 14 49 3 49 -22 0 29 62 113 140 51 47 122 113 158 148 36 34 68
62 72 62 3 0 5 -28 5 -63z m-458 -79 l0 -63 -97 -91 c-53 -51 -127 -121 -166
-158 l-70 -66 -6 28 c-3 15 -1 33 4 40 6 7 6 12 0 12 -27 0 5 60 60 113 33 31
61 57 62 57 1 0 47 43 101 95 54 52 102 95 105 95 4 0 7 -28 7 -62z m87 -98
c-1 -48 -6 -65 -25 -85 -13 -14 -26 -22 -29 -19 -3 2 -6 30 -7 60 -1 46 3 61
23 85 14 16 28 27 32 24 4 -2 7 -31 6 -65z m371 4 l-2 -66 -80 -76 c-231 -219
-333 -314 -341 -315 -4 -1 -8 26 -9 61 l0 62 87 83 c48 45 128 120 179 167 51
47 106 100 123 118 16 17 33 32 37 32 4 0 6 -30 6 -66z m-821 -71 c-2 -63 -4
-68 -39 -100 -20 -18 -36 -38 -36 -43 0 -6 -4 -10 -9 -10 -4 0 -8 -39 -8 -86
l0 -86 -74 -70 c-200 -189 -253 -237 -258 -233 -4 2 -6 69 -6 150 l1 147 74
70 c131 123 352 328 355 328 1 0 1 -30 0 -67z m363 -10 c0 -60 -3 -71 -27 -91
-14 -13 -84 -78 -155 -145 -144 -137 -152 -143 -160 -122 -3 8 -2 15 2 15 4 0
6 21 4 47 -4 55 -14 43 148 193 62 58 127 119 144 137 17 17 34 32 38 32 4 1
7 -29 6 -66z m87 -90 c-2 -32 -3 -61 -4 -65 -1 -9 -43 -48 -51 -48 -4 0 -6 28
-6 63 1 52 5 66 26 88 14 14 28 24 31 22 4 -1 6 -29 4 -60z m371 -96 l0 -147
-125 -119 c-260 -245 -293 -276 -300 -274 -3 2 -6 69 -7 150 l0 147 32 31 c17
16 87 82 154 145 67 63 146 138 174 166 28 29 56 51 61 50 6 -2 10 -60 11
-149z m-819 66 c0 -7 -5 -13 -11 -13 -6 0 -4 -4 4 -10 8 -5 11 -12 8 -16 -4
-4 -3 -16 3 -27 8 -14 8 -18 0 -13 -7 4 -11 -1 -11 -13 0 -26 -46 -76 -55 -61
-11 18 -11 80 0 80 5 0 4 4 -3 8 -9 6 -6 17 15 44 28 36 50 45 50 21z m362
-63 l-2 -59 -81 -74 c-77 -71 -137 -127 -218 -205 l-38 -36 0 67 0 68 83 78
c196 188 242 229 249 225 5 -3 7 -32 7 -64z m-361 -107 c-2 -10 -7 -21 -13
-25 -6 -5 -6 -8 2 -8 22 0 6 -81 -23 -111 -15 -15 -30 -26 -34 -24 -7 5 -5 59
4 74 4 5 2 12 -3 16 -14 8 -2 35 28 66 31 32 43 35 39 12z m361 -62 l1 -59
-58 -55 c-31 -30 -88 -84 -126 -121 -38 -36 -71 -66 -73 -66 -2 0 -38 -34 -80
-75 -41 -41 -81 -75 -87 -75 -8 0 -10 21 -9 63 l3 62 63 59 c34 32 120 113
191 180 71 66 134 126 140 133 24 26 34 13 35 -46z m-454 -154 c1 -125 -7
-187 -25 -187 -4 0 -54 -44 -111 -97 -56 -54 -123 -117 -148 -140 -25 -23 -47
-40 -50 -37 -3 3 -6 70 -6 150 l-1 145 121 113 c66 63 140 132 164 155 24 23
46 39 50 36 3 -3 5 -65 6 -138z m95 43 c0 -5 -6 -10 -12 -10 -9 0 -10 -2 -2
-8 10 -6 11 -48 2 -92 -5 -23 -47 -62 -59 -54 -6 4 -6 11 2 20 6 8 7 14 2 14
-17 0 2 88 24 114 23 27 43 34 43 16z m358 -149 l1 -149 -131 -124 c-72 -68
-162 -153 -202 -190 -39 -38 -74 -68 -78 -68 -5 0 -11 -1 -15 -2 -3 -2 -7 29
-7 69 -1 40 3 69 8 66 5 -4 6 -1 1 6 -4 7 -7 42 -7 79 l0 65 94 91 c181 173
323 306 329 306 3 0 6 -67 7 -149z"/>
</g>
</svg>
