<?xml version="1.0" encoding="UTF-8"?>
<svg id="Camada_1" data-name="Camada 1" xmlns="http://www.w3.org/2000/svg" viewBox="0 0 397.49 783.28">
  <defs>
    <style>
      .cls-1 {
        fill: #fff;
        fill-rule: evenodd;
        stroke-width: 0px;
      }
    </style>
  </defs>
  <path class="cls-1" d="M85.73,393.59v378c0,3.9,3.9,11.69,11.69,11.69h151.98c7.79,0,11.69-3.9,11.69-11.69v-381.9h109.11c3.9,0,11.69-3.9,11.69-7.79l11.69-116.91c0-7.79-3.9-11.69-11.69-11.69h-120.8v-81.84c0-19.48,15.59-35.07,38.97-35.07h85.73c7.79,0,11.69-3.9,11.69-11.69V11.69c-7.79-7.79-11.69-11.69-19.48-11.69h-140.29C155.88,0,85.73,62.35,85.73,140.29v113.01H11.69c-7.79,0-11.69,3.9-11.69,11.69v116.91c0,3.9,3.9,11.69,11.69,11.69h74.04,0Z"/>
</svg>