<?xml version="1.0" encoding="utf-8"?>
<!-- Generator: Adobe Illustrator 28.1.0, SVG Export Plug-In . SVG Version: 6.00 Build 0)  -->
<svg version="1.1" id="Camada_1" xmlns="http://www.w3.org/2000/svg" xmlns:xlink="http://www.w3.org/1999/xlink" x="0px" y="0px"
	 viewBox="0 0 800 800" style="enable-background:new 0 0 800 800;" xml:space="preserve">
<style type="text/css">
	.st0{fill:#A5A5A5;}
	.st1{fill:#BABABA;}
	.st2{fill:#B7B7B7;}
</style>
<path class="st0" d="M612,147.4c-24,0-48,20-48,48s20,48,48,48c28,0,48-20,48-48C656,167.4,636,147.4,612,147.4z"/>
<path class="st1" d="M400,207.4c-108,0-196,88-196,196s88,196,196,196s196-88,196-196C600,295.4,512,207.4,400,207.4z M400,531.4
	c-68,0-128-56-128-128c0-68,56-128,128-128c68,0,128,56,128,128S472,531.4,400,531.4z"/>
<path class="st2" d="M560-0.6H240c-132,0-240,108-240,240v320c0,132,108,240,240,240h320c132,0,240-108,240-240v-320
	C800,107.4,692-0.6,560-0.6z M724,559.4c0,92-76,164-164,164H240c-92,0-164-76-164-164v-320c0-92,76-164,164-164h320
	c92,0,164,76,164,164V559.4z"/>
</svg>
