<?xml version="1.0" encoding="utf-8"?>
<!-- Generator: Adobe Illustrator 24.2.1, SVG Export Plug-In . SVG Version: 6.00 Build 0)  -->
<svg version="1.1" id="Layer_1" xmlns="http://www.w3.org/2000/svg" xmlns:xlink="http://www.w3.org/1999/xlink" x="0px" y="0px"
	 viewBox="0 0 20 20" style="enable-background:new 0 0 20 20;" xml:space="preserve">
<style type="text/css">
	.st0{fill-rule:evenodd;clip-rule:evenodd;fill:#FFFFFF;}
</style>
<path class="st0" d="M0,9.7C0,1.6,10.3-3.5,16.9,2.8c3.5,3.4,4.1,8.9,1.2,13C14.6,20.7,9.9,20,5.4,20v-9.6c0-2.1,0.7-3.9,3.3-4.8
	c2.2-0.7,4.9,0.6,5.7,2.9c0.8,2.5-0.4,4.2-1.8,5.3c-1.4,1-3.6,1-5.1,0v3.3c3.1,1.5,8.1-0.3,9.7-4.4c1.1-2.9,0.3-6.2-1.9-8.3
	c-2.7-2.2-5.7-2.7-8.8-1.2C4.3,4.4,2.7,6.6,2.4,9.1V20H0L0,9.7z"/>
</svg>
